<svg width="48" height="48" viewBox="0 0 48 48" fill="none" xmlns="http://www.w3.org/2000/svg">
<path d="M24.0218 44.4038C34.8427 44.4038 43.6149 35.4574 43.6149 24.4216C43.6149 13.3858 34.8427 4.43945 24.0218 4.43945C13.2009 4.43945 4.42871 13.3858 4.42871 24.4216C4.42871 35.4574 13.2009 44.4038 24.0218 44.4038Z" stroke="#4886FF" stroke-width="3"/>
<path d="M33.8193 18.8108C33.8193 24.3642 33.8193 29.8835 33.8193 35.4026C33.7859 35.4291 33.7525 35.4556 33.719 35.4819C33.6886 35.4128 33.6695 35.3339 33.6258 35.2761C32.4182 33.678 31.2021 32.087 30.0066 30.4789C29.8741 30.3009 29.7949 30.0279 29.7938 29.7983C29.7746 25.9216 29.7719 22.0447 29.7656 18.1678C29.7652 17.9752 29.7656 17.7825 29.7656 17.5273C29.5437 17.5273 29.3435 17.5269 29.1432 17.5273C28.5165 17.5286 27.8896 17.5318 27.2629 17.5309C26.8934 17.5304 26.8245 17.4615 26.8236 17.0711C26.8209 15.916 26.8215 14.7609 26.8237 13.6059C26.8247 13.1223 26.9386 13.0043 27.4061 13.0038C28.8759 13.0022 30.3458 13.0035 31.8156 13.0038C32.2911 13.0039 32.7668 12.9983 33.2421 13.0061C33.6925 13.0133 33.8146 13.1476 33.8155 13.6301C33.8185 15.3456 33.8182 17.0611 33.8193 18.8108Z" fill="#4886FF"/>
<path d="M14.5774 19.65C14.5774 17.5631 14.5774 15.5105 14.5774 13.4578C14.6108 13.425 14.6441 13.3922 14.6775 13.3594C14.7099 13.4392 14.7274 13.5313 14.7767 13.5971C15.9898 15.2115 17.2111 16.8191 18.4145 18.4413C18.5355 18.6045 18.6076 18.8528 18.6082 19.0619C18.6199 22.9547 18.6174 26.8475 18.6177 30.7403C18.6178 30.8877 18.6178 31.0352 18.6178 31.2133C18.7253 31.2212 18.8184 31.2341 18.9115 31.2342C19.6532 31.2356 20.3948 31.2396 21.1364 31.2318C21.4404 31.2286 21.573 31.3689 21.5721 31.6844C21.5688 32.906 21.5748 34.1274 21.5708 35.3489C21.5696 35.7164 21.4519 35.8386 21.0937 35.8389C19.1197 35.8403 17.1457 35.8382 15.1717 35.8317C14.7401 35.8303 14.5788 35.6474 14.5768 35.1643C14.5724 33.9998 14.5763 32.8354 14.5764 31.671C14.5768 27.6754 14.5771 23.6798 14.5774 19.65Z" fill="#4886FF"/>
<path d="M30.6107 22.2793H18.4233V26.2044H31.7186L30.6107 22.2793Z" fill="#4886FF"/>
</svg>
